<?xml version="1.0" encoding="UTF-8"?>
<!DOCTYPE svg PUBLIC "-//W3C//DTD SVG 1.1//EN" "http://www.w3.org/Graphics/SVG/1.1/DTD/svg11.dtd">
<svg xmlns="http://www.w3.org/2000/svg" version="1.1" width="512px" height="512px" style="shape-rendering:geometricPrecision; text-rendering:geometricPrecision; image-rendering:optimizeQuality; fill-rule:evenodd; clip-rule:evenodd" xmlns:xlink="http://www.w3.org/1999/xlink">
<g transform="translate(0, 20)"><path style="opacity:0.948" fill="#3a6cd9" d="M 468.5,30.5 C 479.465,32.0923 482.965,38.0923 479,48.5C 463.319,64.0139 447.819,79.6806 432.5,95.5C 439.184,102.35 445.684,109.35 452,116.5C 457.814,128.268 459.147,140.601 456,153.5C 452.318,182.278 447.984,210.944 443,239.5C 437.367,257.126 427.7,272.126 414,284.5C 395.062,341.982 375.728,399.315 356,456.5C 343.693,473.715 327.193,479.882 306.5,475C 289.239,468.692 272.072,462.192 255,455.5C 249.486,460.714 244.319,466.214 239.5,472C 224.236,481.683 208.236,483.016 191.5,476C 140.028,425.528 88.8608,374.694 38,323.5C 31.8584,313.343 29.8584,302.343 32,290.5C 33.0722,285.617 34.7388,280.95 37,276.5C 41.8004,270.698 46.967,265.198 52.5,260C 115.833,201.333 179.167,142.667 242.5,84C 253.415,75.3775 265.749,69.7109 279.5,67C 311.084,62.1308 342.751,57.9641 374.5,54.5C 382.163,53.7763 389.163,55.6096 395.5,60C 402.636,66.1349 409.469,72.6349 416,79.5C 431.5,64 447,48.5 462.5,33C 464.611,32.1553 466.611,31.322 468.5,30.5 Z M 369.5,76.5 C 373.967,76.1326 378.3,76.6326 382.5,78C 388.348,83.6812 394.015,89.5146 399.5,95.5C 391.848,103.652 384.015,111.652 376,119.5C 353.936,112.516 338.936,119.849 331,141.5C 328.26,162.067 336.76,175.234 356.5,181C 374.799,183.103 387.299,175.603 394,158.5C 394.759,155.374 395.259,152.207 395.5,149C 394.903,144.027 394.069,139.194 393,134.5C 400.667,126.833 408.333,119.167 416,111.5C 421.667,117.167 427.333,122.833 433,128.5C 434.701,130.9 435.534,133.567 435.5,136.5C 431.807,164.519 427.973,192.519 424,220.5C 422.654,236.565 416.32,250.232 405,261.5C 345.966,324.199 287.3,387.199 229,450.5C 222.136,457.591 213.969,459.758 204.5,457C 154.694,408.194 105.194,359.028 56,309.5C 52.5698,302.024 52.9031,294.69 57,287.5C 124.167,225 191.333,162.5 258.5,100C 265.971,94.4325 274.304,90.7659 283.5,89C 312.354,85.1402 341.021,80.9735 369.5,76.5 Z M 361.5,138.5 C 371.641,140.45 374.641,146.117 370.5,155.5C 365.333,160.75 360.167,160.75 355,155.5C 351.029,147.447 353.196,141.78 361.5,138.5 Z M 375.5,325.5 C 363.536,365.564 350.369,405.564 336,445.5C 330.529,452.653 323.362,455.487 314.5,454C 300.244,448.47 285.911,443.137 271.5,438C 306.372,400.63 341.039,363.13 375.5,325.5 Z"/></g>
<g transform="translate(0, 20)"><path style="opacity:0.936" fill="#3a6cd9" d="M 176.5,255.5 C 180.308,255.163 183.974,255.663 187.5,257C 210,279.5 232.5,302 255,324.5C 258.437,333.959 255.27,339.959 245.5,342.5C 243.111,341.82 240.778,340.986 238.5,340C 216.333,317.833 194.167,295.667 172,273.5C 168.281,266.163 169.781,260.163 176.5,255.5 Z"/></g>
<g transform="translate(0, 20)"><path style="opacity:0.935" fill="#3a6cd9" d="M 144.5,287.5 C 148.273,287.263 151.94,287.763 155.5,289C 178,311.5 200.5,334 223,356.5C 226.924,366.32 223.758,372.32 213.5,374.5C 210.972,374.237 208.639,373.404 206.5,372C 184,349.5 161.5,327 139,304.5C 136.269,297.307 138.102,291.64 144.5,287.5 Z"/></g>
</svg> 